<?xml version="1.0" encoding="UTF-8"?>
<svg xmlns="http://www.w3.org/2000/svg" version="1.1" viewBox="0 0 100 100">
  <defs>
    <style>
      .outline {
        fill: none;
        stroke: #000;
        stroke-width: 1px;
        stroke-miterlimit: 10;
      }
    </style>
  </defs>
  <!-- Ball outline -->
  <path class="outline" d="M50.88,95.56c-19.69,0-35.71-16.02-35.71-35.71S31.19,24.14,50.88,24.14s35.71,16.02,35.71,35.71-16.02,35.71-35.71,35.71Z"/>
  
  <!-- Fin outline -->
  <path class="outline" d="M47.03,24.32c-.72-2.38,6.03-7,12.12-9.05,1.22-.41,7.58-2.51,15.78-.85,6.04,1.22,10.35,3.91,12.69,5.62-1.16-.15-7.17-.81-10.87,2.93-.61.62-1.82,1.84-2.08,3.69-.19,1.34.22,2.35,1.49,5.15,1.01,2.22,1.94,4.2,2.76,5.91-2.19-2.9-5.65-6.61-10.8-9.12-10.44-5.08-20.26-1.53-21.09-4.28Z"/>
  
  <!-- Panel 1 outline -->
  <path class="outline" d="M36.09,91.67c-.04-6.73.77-21.43,9.64-36.99,7.85-13.77,18.23-21.6,23.81-25.23-2.63-1.54-6.51-3.39-11.48-4.39-2.97-.6-5.64-.76-7.84-.73-4.88,3.22-13.27,9.68-19.8,20.72-8.64,14.61-8.99,28.72-8.79,34.72,1.42,1.95,3.49,4.41,6.38,6.8,2.97,2.46,5.85,4.07,8.08,5.1Z"/>
  
  <!-- Panel 2 outline -->
  <path class="outline" d="M21.75,79.91c-.16-5.78.26-18.41,7.51-32.03,6.99-13.13,16.74-20.44,21.57-23.6-1.99-.03-4.76.11-7.94.85-9.31,2.17-20.57,9.17-25.39,22.04-6.41,17.09,3.4,31.54,4.25,32.74Z"/>
  
  <!-- Panel 3 outline -->
  <path class="outline" d="M37.89,75.82c1.43,1.83,3.16,3.73,5.24,5.57,8.26,7.32,17.56,9.76,23.1,10.68-2.77,1.33-8.17,3.48-15.28,3.43-6.81-.05-12-2.09-14.74-3.4-.04-2.62.07-5.57.43-8.79.31-2.74.75-5.24,1.25-7.49Z"/>
  
  <!-- Panel 4 outline -->
  <path class="outline" d="M44.41,57.39c2.57,2.74,5.61,5.6,9.17,8.41,9.59,7.56,19.22,11.71,26.55,14.08-1.19,1.94-3.1,4.6-6.05,7.18-2.91,2.55-5.77,4.09-7.84,5.01-3.52-.43-9.53-1.62-15.97-5.39-6.26-3.66-10.18-8.15-12.28-10.96.59-2.99,1.47-6.41,2.81-10.11,1.13-3.12,2.38-5.86,3.61-8.22Z"/>
  
  <!-- Panel 5 outline -->
  <path class="outline" d="M56.22,40.6c2.57,2.72,5.67,5.63,9.35,8.48,7.6,5.88,15.07,9.48,20.98,11.72-.05,2.56-.4,6.23-1.8,10.39-1.29,3.83-3.03,6.78-4.44,8.79-4.98-1.54-11.21-3.98-17.86-7.94-8.14-4.84-14.09-10.27-18.12-14.57,1.48-2.88,3.38-6.12,5.81-9.5,2.06-2.85,4.13-5.3,6.07-7.37Z"/>
</svg>